<svg width="46" height="45" viewBox="0 0 46 45" fill="none" xmlns="http://www.w3.org/2000/svg">
<path d="M17.9014 5.61572C21.1286 5.61572 24.2235 6.8977 26.5055 9.17965C28.7874 11.4616 30.0694 14.5566 30.0694 17.7837C30.0694 20.7976 28.9649 23.5682 27.1491 25.7023L27.6545 26.2077H29.1334L38.4934 35.5677L35.6854 38.3757L26.3254 29.0157V27.5368L25.82 27.0314C23.6859 28.8472 20.9153 29.9517 17.9014 29.9517C14.6742 29.9517 11.5793 28.6697 9.29732 26.3878C7.01538 24.1059 5.7334 21.0109 5.7334 17.7837C5.7334 14.5566 7.01538 11.4616 9.29732 9.17965C11.5793 6.8977 14.6742 5.61572 17.9014 5.61572ZM17.9014 9.35972C13.2214 9.35972 9.4774 13.1037 9.4774 17.7837C9.4774 22.4637 13.2214 26.2077 17.9014 26.2077C22.5814 26.2077 26.3254 22.4637 26.3254 17.7837C26.3254 13.1037 22.5814 9.35972 17.9014 9.35972Z" fill="#878787"/>
</svg>
