<svg width="45" height="45" viewBox="0 0 45 45" fill="none" xmlns="http://www.w3.org/2000/svg">
<g clip-path="url(#clip0_249_706)">
<path d="M22.0537 4.31687C29.4036 4.31687 36.0445 9.93013 36.0445 18.6882C36.0445 21.5148 34.9057 24.7237 32.4488 28.3458C30.1268 31.769 26.6736 35.4922 22.0537 39.5153C17.4339 35.4922 13.9807 31.769 11.6587 28.3458C9.20172 24.7237 8.06296 21.5148 8.06296 18.6882C8.06296 9.93013 14.7039 4.31687 22.0537 4.31687Z" stroke="#F7C800" stroke-width="2.46577"/>
<path d="M20.7597 17.3254C20.6004 17.4846 20.474 17.6737 20.3878 17.8817C20.3016 18.0898 20.2571 18.3128 20.2571 18.5381C20.257 18.7633 20.3013 18.9863 20.3875 19.1945C20.4736 19.4026 20.5999 19.5917 20.7592 19.751C20.9184 19.9105 21.1075 20.0371 21.3157 20.1234C21.5238 20.2098 21.747 20.2543 21.9723 20.2543C22.1977 20.2543 22.4209 20.2099 22.6291 20.1236C22.8373 20.0373 23.0264 19.9107 23.1856 19.7513C23.3452 19.592 23.4718 19.4029 23.5581 19.1947C23.6445 18.9865 23.6889 18.7633 23.6889 18.5379C23.6889 18.3125 23.6445 18.0893 23.5581 17.8811C23.4718 17.6729 23.3452 17.4838 23.1856 17.3245C23.0264 17.1652 22.8372 17.0388 22.6291 16.9526C22.4209 16.8663 22.1978 16.822 21.9725 16.8221C21.7472 16.8222 21.5241 16.8666 21.316 16.953C21.1079 17.0394 20.9189 17.1659 20.7597 17.3254ZM29.4584 26.7616C33.9617 22.2197 33.951 14.8614 29.424 10.3345C29.4175 10.328 29.4099 10.324 29.4034 10.3178L29.4051 10.3162L28.9269 9.8374L28.9213 9.84304C28.7942 9.74126 28.6344 9.68916 28.4717 9.69648C28.309 9.70379 28.1546 9.77001 28.0371 9.8828L28.0363 9.88195L28.0289 9.88928L28.0267 9.89126L28.025 9.89351L27.2431 10.6751L27.2426 10.6756L27.242 10.6762L27.1856 10.7326L27.1913 10.7382C27.0979 10.8569 27.0473 11.0037 27.0478 11.1547C27.0484 11.3058 27.0999 11.4522 27.1941 11.5703L27.1887 11.5756L27.2423 11.6292V11.6295L27.6672 12.0538L27.6748 12.0462C27.681 12.0527 27.6852 12.0603 27.6917 12.0668C31.2632 15.6385 31.2744 21.4427 27.7261 25.029L27.7213 25.0243L27.2973 25.4483L27.2964 25.4489L27.2959 25.4497L27.2429 25.5027L27.2482 25.5081C27.1464 25.6352 27.0943 25.795 27.1017 25.9577C27.109 26.1203 27.1752 26.2748 27.288 26.3923L27.2871 26.3931L27.2959 26.4019L27.2964 26.4027L27.2973 26.4033L27.6909 26.7969L27.6914 26.7977L27.6923 26.7983L28.0802 27.1862L28.0808 27.1871L28.0817 27.1876L28.1375 27.2435L28.1431 27.2378C28.2619 27.3311 28.4087 27.3816 28.5597 27.3812C28.7108 27.3807 28.8572 27.3293 28.9754 27.2353L28.9808 27.2406L29.4226 26.7986L29.424 26.7974L29.4291 26.7921L29.4593 26.7619L29.4584 26.7616Z" fill="#F7C800"/>
<path d="M26.1805 23.4834C28.8762 20.7488 28.8655 16.3318 26.1458 13.6124C26.1394 13.6059 26.1317 13.602 26.1253 13.5955L26.1272 13.5935L25.6488 13.1147L25.6431 13.1204C25.516 13.0186 25.3562 12.9665 25.1936 12.9738C25.0309 12.9811 24.8764 13.0474 24.7589 13.1601L24.7581 13.1593L24.7499 13.1675L24.7485 13.1686L24.7474 13.17L23.9653 13.9521L23.9641 13.953L23.9633 13.9541L23.9075 14.0099L23.9131 14.0156C23.8197 14.1342 23.7691 14.281 23.7695 14.432C23.77 14.5831 23.8215 14.7295 23.9156 14.8476L23.9103 14.853L23.9636 14.9062L23.9641 14.9068L23.9647 14.9074L24.3887 15.3317L24.3964 15.3241C24.4026 15.3306 24.4068 15.3382 24.4133 15.3447C26.1777 17.1088 26.1876 19.9706 24.4468 21.7497L24.4432 21.746L24.0188 22.1704L24.0183 22.1706L24.018 22.1712L23.9647 22.2245L23.97 22.2298C23.8683 22.3569 23.8163 22.5167 23.8236 22.6793C23.8309 22.8419 23.8971 22.9963 24.0098 23.1138L24.0087 23.1149L24.8026 23.9086L24.8593 23.9652L24.865 23.9596C24.9837 24.0528 25.1304 24.1033 25.2814 24.1028C25.4324 24.1024 25.5788 24.051 25.697 23.9571L25.7026 23.9627L26.1458 23.5195L26.1811 23.4842L26.1805 23.4834Z" fill="#F7C800"/>
<path d="M23.1868 17.3257C23.0275 17.1663 22.8384 17.0398 22.6303 16.9535C22.4221 16.8672 22.199 16.8228 21.9736 16.8228C21.7483 16.8227 21.5251 16.8671 21.317 16.9534C21.1088 17.0396 20.9196 17.166 20.7603 17.3254C20.6009 17.4846 20.4744 17.6737 20.3881 17.8819C20.3018 18.09 20.2573 18.3132 20.2573 18.5385C20.2573 18.7638 20.3018 18.987 20.3881 19.1951C20.4744 19.4033 20.6009 19.5924 20.7603 19.7516C20.9196 19.911 21.1087 20.0375 21.3168 20.1238C21.525 20.2101 21.7481 20.2545 21.9735 20.2545C22.1988 20.2544 22.4219 20.21 22.6301 20.1236C22.8382 20.0373 23.0273 19.9108 23.1865 19.7513C23.5081 19.4297 23.6889 18.9934 23.6889 18.5386C23.689 18.0837 23.5084 17.6474 23.1868 17.3257Z" fill="#F7C800"/>
<path d="M20.0301 22.2288L20.0355 22.2234L19.9825 22.1704L19.9816 22.1693L19.9808 22.1684L19.557 21.7444L19.5494 21.752C19.5432 21.7455 19.539 21.7379 19.5328 21.7317C17.7683 19.9673 17.7585 17.1055 19.4992 15.3264L19.5029 15.3301L19.9814 14.8519L19.9757 14.8463C20.0774 14.7192 20.1295 14.5594 20.1222 14.3968C20.1148 14.2342 20.0487 14.0798 19.936 13.9623L19.9371 13.9612L19.0862 13.1106L19.0805 13.1162C18.9619 13.0228 18.8151 12.9722 18.6641 12.9727C18.513 12.9731 18.3666 13.0246 18.2485 13.1188L18.2431 13.1134L18.1893 13.1673L17.7999 13.5566L17.7647 13.5919L17.7655 13.5927C15.0695 16.3273 15.0805 20.7443 17.8002 23.464C17.8064 23.4702 17.814 23.4744 17.8205 23.4806L17.8188 23.4823L18.2973 23.9611L18.3029 23.9554C18.43 24.0571 18.5897 24.1092 18.7523 24.1019C18.915 24.0946 19.0694 24.0284 19.1868 23.9157L19.1877 23.9165L19.1958 23.9083L19.1973 23.9072L19.1984 23.9058L19.9808 23.1234L19.9816 23.1228L19.9822 23.1223L20.0383 23.0662L20.0327 23.0605C20.1261 22.9419 20.1767 22.7952 20.1763 22.6442C20.1758 22.4932 20.1243 22.3468 20.0301 22.2288Z" fill="#F7C800"/>
<path d="M16.7521 25.5065L16.7574 25.5012L16.7039 25.4476L16.7036 25.4473L16.7033 25.447L16.2787 25.0227L16.2711 25.0303C16.2649 25.0238 16.2606 25.0162 16.2544 25.0097C12.6827 21.4377 12.672 15.6341 16.2203 12.0477L16.2248 12.0522L16.6489 11.6282L16.6497 11.6276L16.6503 11.6268L16.7033 11.5738L16.6979 11.5684C16.7997 11.4413 16.8518 11.2815 16.8445 11.1188C16.8372 10.9562 16.771 10.8017 16.6582 10.6842L16.6593 10.6831L16.255 10.2788L16.2547 10.2785L16.2544 10.2782L15.8087 9.83247L15.803 9.83839C15.6844 9.74496 15.5376 9.69437 15.3866 9.69483C15.2355 9.69529 15.0891 9.74677 14.971 9.84092L14.9654 9.83529L14.4872 10.3138L14.488 10.3146C9.98419 14.8568 9.9949 22.2153 14.5221 26.7423C14.5286 26.7488 14.5362 26.7527 14.5427 26.7589L14.5407 26.7609L15.0192 27.2397L15.0249 27.234C15.152 27.3358 15.3118 27.3878 15.4745 27.3804C15.6372 27.3731 15.7916 27.3068 15.909 27.194L15.9099 27.1948L15.9192 27.1855L16.7024 26.402L16.7039 26.4009L16.705 26.3995L16.7602 26.3442L16.7546 26.3386C16.848 26.2199 16.8986 26.0731 16.8982 25.9221C16.8977 25.7711 16.8462 25.6246 16.7521 25.5065Z" fill="#F7C800"/>
</g>
<defs>
<clipPath id="clip0_249_706">
<rect width="44.6184" height="44.6184" fill="white" transform="translate(0 0.0600586)"/>
</clipPath>
</defs>
</svg>
