<svg width="365" height="67" viewBox="0 0 365 67" fill="none" xmlns="http://www.w3.org/2000/svg">
<rect width="364.549" height="65.34" transform="translate(0 0.830078)" fill="white"/>
<g clip-path="url(#clip0_239_1227)">
<path d="M28.6697 9.85764C38.2566 9.85764 46.9188 17.1794 46.9188 28.6031C46.9188 32.29 45.4334 36.4756 42.2287 41.2002C39.1999 45.6653 34.6957 50.5216 28.6697 55.7693C22.6437 50.5216 18.1395 45.6653 15.1107 41.2002C11.906 36.4756 10.4206 32.29 10.4206 28.6031C10.4206 17.1794 19.0828 9.85764 28.6697 9.85764Z" stroke="#F7C800" stroke-width="3.21626"/>
<path d="M26.9823 26.8248C26.7745 27.0325 26.6097 27.2791 26.4972 27.5505C26.3847 27.8219 26.3267 28.1128 26.3267 28.4066C26.3266 28.7004 26.3844 28.9913 26.4968 29.2628C26.6091 29.5342 26.7739 29.7809 26.9816 29.9887C27.1892 30.1968 27.4359 30.3618 27.7074 30.4745C27.979 30.5871 28.27 30.6451 28.564 30.6452C28.858 30.6452 29.1491 30.5873 29.4206 30.4747C29.6922 30.3621 29.9389 30.1971 30.1466 29.989C30.3547 29.7814 30.5198 29.5347 30.6324 29.2631C30.7451 28.9915 30.803 28.7004 30.803 28.4064C30.803 28.1124 30.7451 27.8212 30.6324 27.5497C30.5198 27.2781 30.3547 27.0314 30.1466 26.8237C29.9388 26.6158 29.6921 26.451 29.4206 26.3385C29.1491 26.226 28.8581 26.1682 28.5642 26.1683C28.2703 26.1684 27.9794 26.2265 27.7079 26.3391C27.4365 26.4517 27.1899 26.6168 26.9823 26.8248ZM38.3286 39.1331C44.2025 33.2088 44.1885 23.6109 38.2837 17.7061C38.2752 17.6977 38.2653 17.6925 38.2568 17.6844L38.2591 17.6822L37.6353 17.0577L37.628 17.0651C37.4622 16.9323 37.2537 16.8644 37.0416 16.8739C36.8294 16.8835 36.6279 16.9698 36.4747 17.117L36.4736 17.1159L36.464 17.1254L36.4611 17.128L36.4588 17.1309L35.439 18.1504L35.4383 18.1511L35.4376 18.1518L35.364 18.2254L35.3714 18.2328C35.2496 18.3876 35.1836 18.579 35.1843 18.776C35.185 18.973 35.2522 19.164 35.375 19.318L35.3681 19.325L35.4379 19.3949V19.3953L35.9922 19.9487L36.0021 19.9388C36.0102 19.9473 36.0157 19.9572 36.0242 19.9657C40.6826 24.6245 40.6973 32.1953 36.069 36.8732L36.0628 36.867L35.5097 37.4201L35.5085 37.4208L35.5078 37.4219L35.4387 37.491L35.4457 37.498C35.3129 37.6638 35.2449 37.8723 35.2545 38.0845C35.264 38.2966 35.3504 38.4981 35.4975 38.6513L35.4964 38.6524L35.5078 38.6638L35.5085 38.665L35.5097 38.6657L36.023 39.1791L36.0238 39.1802L36.0249 39.1809L36.5309 39.687L36.5317 39.6881L36.5328 39.6888L36.6056 39.7616L36.6129 39.7543C36.7679 39.876 36.9593 39.9419 37.1563 39.9413C37.3534 39.9407 37.5444 39.8736 37.6986 39.751L37.7056 39.7579L38.2819 39.1813L38.2837 39.1798L38.2903 39.1728L38.3297 39.1335L38.3286 39.1331Z" fill="#F7C800"/>
<path d="M34.053 34.8576C37.5692 31.2907 37.5552 25.5293 34.0078 21.9822C33.9993 21.9738 33.9894 21.9686 33.9809 21.9602L33.9835 21.9576L33.3594 21.3331L33.3521 21.3405C33.1863 21.2077 32.9778 21.1398 32.7656 21.1493C32.5535 21.1589 32.352 21.2452 32.1988 21.3923L32.1976 21.3912L32.187 21.4019L32.1851 21.4034L32.1837 21.4052L31.1635 22.4254L31.162 22.4265L31.1609 22.428L31.0881 22.5008L31.0955 22.5081C30.9736 22.6629 30.9076 22.8544 30.9082 23.0514C30.9088 23.2484 30.976 23.4394 31.0988 23.5934L31.0918 23.6004L31.1613 23.6699L31.162 23.6706L31.1628 23.6714L31.7159 24.2249L31.7258 24.2149C31.7339 24.2234 31.7394 24.2333 31.7479 24.2418C34.0493 26.5429 34.0622 30.2757 31.7916 32.5963L31.7869 32.5915L31.2334 33.145L31.2326 33.1453L31.2323 33.1461L31.1628 33.2156L31.1698 33.2226C31.0371 33.3883 30.9692 33.5967 30.9787 33.8088C30.9883 34.0209 31.0746 34.2223 31.2216 34.3755L31.2201 34.377L32.2558 35.4122L32.3297 35.4861L32.337 35.4788C32.4919 35.6004 32.6833 35.6662 32.8802 35.6656C33.0772 35.665 33.2682 35.598 33.4223 35.4755L33.4297 35.4828L34.0078 34.9047L34.0538 34.8587L34.053 34.8576Z" fill="#F7C800"/>
<path d="M30.148 26.8255C29.9403 26.6175 29.6936 26.4526 29.4221 26.34C29.1506 26.2274 28.8595 26.1695 28.5656 26.1694C28.2717 26.1694 27.9806 26.2273 27.7091 26.3398C27.4375 26.4523 27.1908 26.6172 26.983 26.8251C26.775 27.0328 26.61 27.2794 26.4974 27.5509C26.3849 27.8224 26.3269 28.1135 26.3269 28.4074C26.3269 28.7013 26.3849 28.9924 26.4974 29.2639C26.61 29.5354 26.775 29.782 26.983 29.9897C27.1907 30.1977 27.4374 30.3627 27.7089 30.4752C27.9804 30.5878 28.2715 30.6457 28.5654 30.6456C28.8593 30.6456 29.1504 30.5876 29.4219 30.475C29.6934 30.3624 29.94 30.1974 30.1476 29.9893C30.5672 29.5698 30.8029 29.0008 30.803 28.4075C30.803 27.8142 30.5674 27.2451 30.148 26.8255Z" fill="#F7C800"/>
<path d="M26.0305 33.2208L26.0375 33.2138L25.9683 33.1447L25.9672 33.1432L25.9661 33.1421L25.4134 32.589L25.4035 32.5989C25.3954 32.5905 25.3899 32.5806 25.3818 32.5725C23.0803 30.271 23.0674 26.5382 25.338 24.2176L25.3428 24.2224L25.9669 23.5987L25.9595 23.5913C26.0922 23.4255 26.1601 23.2172 26.1505 23.0051C26.141 22.793 26.0547 22.5916 25.9077 22.4384L25.9091 22.4369L24.7992 21.3274L24.7919 21.3347C24.6371 21.2129 24.4457 21.1469 24.2487 21.1475C24.0517 21.1481 23.8606 21.2152 23.7066 21.338L23.6996 21.331L23.6294 21.4013L23.1215 21.9092L23.0755 21.9551L23.0766 21.9562C19.5601 25.5232 19.5744 31.2846 23.1219 34.832C23.13 34.8401 23.1399 34.8456 23.1483 34.8537L23.1461 34.8559L23.7702 35.4804L23.7776 35.473C23.9434 35.6057 24.1517 35.6736 24.3638 35.664C24.5759 35.6545 24.7773 35.5682 24.9305 35.4212L24.9316 35.4223L24.9423 35.4116L24.9441 35.4101L24.9456 35.4083L25.9661 34.3877L25.9672 34.387L25.968 34.3863L26.0412 34.3131L26.0338 34.3057C26.1557 34.151 26.2217 33.9597 26.2211 33.7627C26.2205 33.5658 26.1533 33.3748 26.0305 33.2208Z" fill="#F7C800"/>
<path d="M21.7551 37.4963L21.7621 37.4893L21.6922 37.4194L21.6918 37.4191L21.6915 37.4187L21.1376 36.8652L21.1277 36.8752C21.1196 36.8667 21.1141 36.8568 21.106 36.8483C16.4472 32.1891 16.4332 24.6191 21.0615 19.9411L21.0674 19.947L21.6205 19.3939L21.6216 19.3932L21.6223 19.3921L21.6915 19.3229L21.6845 19.3159C21.8172 19.1501 21.8852 18.9417 21.8757 18.7295C21.8661 18.5173 21.7797 18.3158 21.6326 18.1626L21.6341 18.1611L21.1067 17.6338L21.1064 17.6334L21.106 17.633L20.5246 17.0516L20.5172 17.0593C20.3624 16.9375 20.171 16.8715 19.974 16.8721C19.777 16.8727 19.586 16.9398 19.4319 17.0626L19.4246 17.0553L18.8008 17.6794L18.802 17.6805C12.9273 23.6052 12.9413 33.2034 18.8465 39.1082C18.8549 39.1167 18.8648 39.1218 18.8733 39.1299L18.8707 39.1325L19.4948 39.757L19.5022 39.7496C19.668 39.8823 19.8765 39.9502 20.0887 39.9406C20.3009 39.931 20.5023 39.8445 20.6555 39.6974L20.6566 39.6985L20.6687 39.6863L21.6904 38.6643L21.6922 38.6629L21.6937 38.661L21.7658 38.5889L21.7584 38.5816C21.8803 38.4268 21.9463 38.2354 21.9457 38.0384C21.9451 37.8414 21.8779 37.6503 21.7551 37.4963Z" fill="#F7C800"/>
</g>
<path d="M101.043 52.7018C108.928 52.7018 112.899 50.0825 112.954 44.8438C112.954 42.6933 111.437 40.9838 108.404 39.7155C107.081 39.1641 105.537 38.6678 103.772 38.2267C102.063 37.7855 100.326 37.3168 98.5614 36.8205C96.7968 36.3242 95.0323 35.7728 93.2677 35.1662C91.5031 34.5045 89.9591 33.6773 88.6356 32.6848C85.6579 30.4239 84.1415 27.4462 84.0863 23.7516C84.0863 19.7812 85.6028 16.5278 88.6356 13.9912C91.8891 11.234 96.2454 9.85547 101.705 9.85547C106.667 9.85547 111.134 10.5999 115.104 12.0888C116.373 12.5299 117.034 13.4398 117.09 14.8184C117.09 15.4801 116.841 16.1142 116.345 16.7208C115.904 17.3274 115.38 17.6307 114.774 17.6307C114.222 17.6307 113.45 17.4652 112.458 17.1344C109.48 16.0867 106.116 15.5628 102.366 15.5628C98.8923 15.5628 96.0248 16.2245 93.764 17.5479C91.4479 18.9265 90.2899 20.829 90.2899 23.2553C90.2899 25.7919 91.7788 27.7494 94.7565 29.128C96.1351 29.7346 97.6791 30.2585 99.3886 30.6996C101.098 31.0856 102.863 31.4992 104.682 31.9403C106.502 32.3815 108.239 32.9329 109.893 33.5946C111.603 34.2012 113.147 34.9732 114.525 35.9106C117.503 38.0612 119.02 41.2044 119.075 45.3401C119.075 49.2002 117.503 52.3433 114.36 54.7696C111.162 57.2511 106.943 58.4918 101.705 58.4918C95.9697 58.4918 90.5932 57.4165 85.5752 55.2659C85.0789 55.0453 84.6378 54.6869 84.2518 54.1906C83.8658 53.6392 83.6728 53.0326 83.6728 52.3709C83.6728 51.7092 83.9209 51.1026 84.4172 50.5512C84.9135 49.9446 85.4649 49.6413 86.0715 49.6413C86.7332 49.6413 87.5328 49.8619 88.4702 50.303C89.4628 50.7442 91.0619 51.268 93.2677 51.8746C95.4734 52.426 98.0651 52.7018 101.043 52.7018ZM132.226 16.6381C136.528 12.1163 142.262 9.85547 149.431 9.85547C156.6 9.85547 162.335 12.1163 166.636 16.6381C170.827 21.1047 173.005 26.9499 173.17 34.1736C173.005 41.3423 170.827 47.1874 166.636 51.7092C162.335 56.2309 156.6 58.4918 149.431 58.4918C142.262 58.4918 136.528 56.2309 132.226 51.7092C127.925 47.1874 125.719 41.3423 125.609 34.1736C125.719 27.005 127.925 21.1598 132.226 16.6381ZM149.431 52.7018C154.945 52.7018 159.274 50.9372 162.417 47.408C165.505 43.9891 167.049 39.5777 167.049 34.1736C167.049 28.7696 165.505 24.3581 162.417 20.9393C159.219 17.3549 154.89 15.5904 149.431 15.6455C143.917 15.6455 139.56 17.4101 136.362 20.9393C133.274 24.3581 131.758 28.7696 131.813 34.1736C131.813 39.5777 133.329 43.9891 136.362 47.408C139.56 50.9372 143.917 52.7018 149.431 52.7018ZM220.235 55.1005C220.235 55.9276 219.932 56.6445 219.325 57.2511C218.774 57.8576 218.029 58.1609 217.092 58.1609C216.21 58.1609 215.465 57.8852 214.859 57.3338C214.307 56.7824 214.031 56.0379 214.031 55.1005V53.0326C214.031 49.3932 213.618 46.7187 212.791 45.0093C212.019 43.2998 210.916 41.9488 209.482 40.9562C208.103 39.9085 206.118 39.3847 203.527 39.3847H189.548V55.1005C189.548 55.9276 189.244 56.6445 188.638 57.2511C188.031 57.8576 187.287 58.1609 186.405 58.1609C185.577 58.1609 184.861 57.8576 184.254 57.2511C183.647 56.6445 183.344 55.9276 183.344 55.1005V13.6603C183.344 12.8332 183.647 12.1163 184.254 11.5098C184.861 10.848 185.577 10.5172 186.405 10.5172H202.203C208.379 10.5172 213.066 11.8406 216.265 14.4875C219.242 16.9689 220.704 20.2224 220.649 24.2478C220.649 26.8396 219.904 29.2935 218.415 31.6095C216.982 33.8703 214.748 35.4971 211.715 36.4896C214.969 37.3168 217.34 39.688 218.829 43.6031C219.821 46.1397 220.29 48.952 220.235 52.04V55.1005ZM201.79 33.5119C205.594 33.5119 208.655 32.7951 210.971 31.3613C213.287 29.8725 214.445 27.6667 214.445 24.7441C214.445 22.0421 213.535 20.0018 211.715 18.6232C209.565 17.0792 206.146 16.3072 201.459 16.3072H189.548V33.5119H201.79ZM234.627 10.1863C235.454 10.1863 236.171 10.4896 236.778 11.0962C237.44 11.7028 237.771 12.4472 237.771 13.3295V55.1005C237.771 55.9276 237.467 56.6445 236.861 57.2511C236.254 57.8576 235.51 58.1609 234.627 58.1609C233.8 58.1609 233.083 57.8576 232.477 57.2511C231.87 56.6445 231.567 55.9276 231.567 55.1005V13.3295C231.567 12.5023 231.87 11.7855 232.477 11.1789C233.083 10.5172 233.8 10.1863 234.627 10.1863ZM272.511 52.7018C276.757 52.7018 280.727 51.7092 284.422 49.724V37.4822H273.172C272.4 37.4822 271.739 37.2065 271.187 36.6551C270.691 36.1036 270.443 35.4419 270.443 34.6699C270.443 33.8979 270.719 33.2362 271.27 32.6848C271.821 32.1333 272.456 31.8576 273.172 31.8576H286.572C287.455 31.8576 288.199 32.1885 288.806 32.8502C289.467 33.4568 289.798 34.2288 289.798 35.1662V50.4685C289.798 51.461 289.55 52.3433 289.054 53.1153C288.613 53.8322 288.006 54.3561 287.234 54.6869C282.161 57.2235 277.005 58.4918 271.766 58.4918C264.653 58.4918 258.918 56.2309 254.562 51.7092C250.205 47.1874 248 41.3698 247.944 34.2563C247.944 27.0877 250.233 21.1598 254.81 16.4727C259.166 12.0612 264.736 9.85547 271.518 9.85547C275.378 9.85547 278.632 10.3242 281.279 11.2616C283.925 12.1991 286.297 13.3571 288.392 14.7356C289.274 15.2319 289.715 15.9488 289.715 16.8862C289.715 17.8237 289.467 18.5681 288.971 19.1195C288.53 19.671 287.951 19.9467 287.234 19.9467C286.517 19.9467 285.938 19.8364 285.497 19.6158C281.141 17.0792 276.702 15.8109 272.18 15.8109C266.941 15.8109 262.64 17.4101 259.276 20.6084C255.802 23.9721 254.093 28.5215 254.148 34.2563C254.148 39.6052 255.747 43.9891 258.946 47.408C262.309 50.9372 266.831 52.7018 272.511 52.7018ZM304.108 10.1863C304.935 10.1863 305.652 10.4896 306.258 11.0962C306.92 11.7028 307.251 12.4472 307.251 13.3295V55.1005C307.251 55.9276 306.948 56.6445 306.341 57.2511C305.735 57.8576 304.99 58.1609 304.108 58.1609C303.281 58.1609 302.564 57.8576 301.957 57.2511C301.351 56.6445 301.047 55.9276 301.047 55.1005V13.3295C301.047 12.5023 301.351 11.7855 301.957 11.1789C302.564 10.5172 303.281 10.1863 304.108 10.1863ZM348.608 51.7092C349.491 51.7092 350.208 52.0125 350.759 52.619C351.366 53.1705 351.669 53.8873 351.669 54.7696C351.669 55.5968 351.366 56.3136 350.759 56.9202C350.208 57.5268 349.491 57.8301 348.608 57.8301H324.538C323.325 57.8301 322.305 57.4165 321.478 56.5894C320.651 55.7622 320.237 54.7421 320.237 53.5289V13.3295C320.237 12.5023 320.541 11.7855 321.147 11.1789C321.754 10.5172 322.471 10.1863 323.298 10.1863C324.125 10.1863 324.842 10.4896 325.448 11.0962C326.11 11.7028 326.441 12.4472 326.441 13.3295V51.7092H348.608Z" fill="black"/>
<defs>
<clipPath id="clip0_239_1227">
<rect width="58.1987" height="58.1987" fill="white" transform="translate(0 4.40088)"/>
</clipPath>
</defs>
</svg>
